<svg width="14" height="14" viewBox="0 0 14 14" fill="none" xmlns="http://www.w3.org/2000/svg">
<path fill-rule="evenodd" clip-rule="evenodd" d="M5.75356 10.4999C5.59256 10.4999 5.43856 10.4334 5.32831 10.3162L2.49156 7.29509C2.27047 7.06059 2.28272 6.69134 2.51722 6.47084C2.75231 6.25034 3.12156 6.26201 3.34147 6.49651L5.74773 9.05792L10.6524 3.69009C10.8706 3.45151 11.2392 3.43576 11.4772 3.65276C11.7146 3.86976 11.731 4.23901 11.514 4.47642L6.18406 10.3098C6.07498 10.4299 5.91981 10.4988 5.75764 10.4999H5.75356Z" fill="currentColor"/>
<mask id="mask0_30_2838" style="mask-type:alpha" maskUnits="userSpaceOnUse" x="2" y="3" width="10" height="8">
<path fill-rule="evenodd" clip-rule="evenodd" d="M5.75356 10.4999C5.59256 10.4999 5.43856 10.4334 5.32831 10.3162L2.49156 7.29509C2.27047 7.06059 2.28272 6.69134 2.51722 6.47084C2.75231 6.25034 3.12156 6.26201 3.34147 6.49651L5.74773 9.05792L10.6524 3.69009C10.8706 3.45151 11.2392 3.43576 11.4772 3.65276C11.7146 3.86976 11.731 4.23901 11.514 4.47642L6.18406 10.3098C6.07498 10.4299 5.91981 10.4988 5.75764 10.4999H5.75356Z" fill="currentColor"/>
</mask>
<g mask="url(#mask0_30_2838)">
<rect width="14" height="14" fill="currentColor"/>
</g>
</svg>
