<svg width="16" height="16" viewBox="0 0 16 16" fill="none" xmlns="http://www.w3.org/2000/svg">
<circle cx="8" cy="8" r="8" fill="#1C1C24"/>
<path fill-rule="evenodd" clip-rule="evenodd" d="M7.99997 11.75V11.75C7.88914 11.75 7.78331 11.7062 7.70497 11.6275L4.46872 8.38581C3.62039 7.53581 3.62039 6.15289 4.46872 5.30289C4.87831 4.89289 5.42539 4.66664 6.00831 4.66664C6.59122 4.66664 7.13831 4.89289 7.54789 5.30289L7.99997 5.75581L8.45164 5.30331C8.86164 4.89289 9.40872 4.66664 9.99164 4.66664C10.5746 4.66664 11.1216 4.89289 11.5312 5.30289C12.3796 6.15289 12.3796 7.53581 11.5316 8.38581L8.29497 11.6279C8.21664 11.7062 8.11081 11.75 7.99997 11.75" fill="#231F20"/>
<mask id="mask0_13_49" style="mask-type:alpha" maskUnits="userSpaceOnUse" x="3" y="4" width="10" height="8">
<path fill-rule="evenodd" clip-rule="evenodd" d="M7.99997 11.75C7.88914 11.75 7.78331 11.7062 7.70497 11.6275L4.46872 8.38581C3.62039 7.53581 3.62039 6.15289 4.46872 5.30289C4.87831 4.89289 5.42539 4.66664 6.00831 4.66664C6.59122 4.66664 7.13831 4.89289 7.54789 5.30289L7.99997 5.75581L8.45164 5.30331C8.86164 4.89289 9.40872 4.66664 9.99164 4.66664C10.5746 4.66664 11.1216 4.89289 11.5312 5.30289C12.3796 6.15289 12.3796 7.53581 11.5316 8.38581L8.29497 11.6279C8.21664 11.7062 8.11081 11.75 7.99997 11.75Z" fill="white"/>
</mask>
<g mask="url(#mask0_13_49)">
<rect x="3" y="3" width="10" height="10" fill="#E24444"/>
</g>
</svg>
