<svg width="183" height="30" viewBox="0 0 183 30" fill="none" xmlns="http://www.w3.org/2000/svg">
<path d="M41.1689 21H43.1377V16.667H45.8887C48.376 16.667 50.0986 14.9707 50.0986 12.4922V12.4746C50.0986 9.9873 48.376 8.31738 45.8887 8.31738H41.1689V21ZM45.3965 9.97852C47.1104 9.97852 48.0947 10.9014 48.0947 12.4834V12.501C48.0947 14.0918 47.1104 15.0146 45.3965 15.0146H43.1377V9.97852H45.3965ZM51.5928 21H53.4912V15.4893C53.4912 14.1094 54.2471 13.3096 55.4688 13.3096C55.8379 13.3096 56.1719 13.3535 56.3213 13.415V11.6484C56.1719 11.6221 55.9346 11.5781 55.6621 11.5781C54.6074 11.5781 53.834 12.2549 53.5352 13.3359H53.4912V11.7539H51.5928V21ZM61.0674 21.1846C63.7129 21.1846 65.4531 19.3564 65.4531 16.377V16.3594C65.4531 13.3975 63.6953 11.5781 61.0586 11.5781C58.4307 11.5781 56.6816 13.4062 56.6816 16.3594V16.377C56.6816 19.3477 58.4131 21.1846 61.0674 21.1846ZM61.0762 19.5938C59.5908 19.5938 58.624 18.4248 58.624 16.377V16.3594C58.624 14.3379 59.5996 13.1689 61.0586 13.1689C62.5439 13.1689 63.5107 14.3379 63.5107 16.3594V16.377C63.5107 18.416 62.5615 19.5938 61.0762 19.5938ZM66.9209 21H68.8193V15.2871C68.8193 14.0918 69.6191 13.2041 70.7441 13.2041C71.8164 13.2041 72.4932 13.8896 72.4932 14.9619V21H74.3564V15.2168C74.3564 14.0479 75.1387 13.2041 76.2637 13.2041C77.3887 13.2041 78.0303 13.8984 78.0303 15.1025V21H79.9375V14.6455C79.9375 12.791 78.7422 11.5781 76.9141 11.5781C75.5957 11.5781 74.5059 12.2725 74.0312 13.3975H73.9873C73.6182 12.2373 72.6865 11.5781 71.4121 11.5781C70.1992 11.5781 69.2588 12.2197 68.8633 13.1865H68.8193V11.7539H66.9209V21ZM85.7471 21.1846C88.3926 21.1846 90.1328 19.3564 90.1328 16.377V16.3594C90.1328 13.3975 88.375 11.5781 85.7383 11.5781C83.1104 11.5781 81.3613 13.4062 81.3613 16.3594V16.377C81.3613 19.3477 83.0928 21.1846 85.7471 21.1846ZM85.7559 19.5938C84.2705 19.5938 83.3037 18.4248 83.3037 16.377V16.3594C83.3037 14.3379 84.2793 13.1689 85.7383 13.1689C87.2236 13.1689 88.1904 14.3379 88.1904 16.3594V16.377C88.1904 18.416 87.2412 19.5938 85.7559 19.5938ZM94.8438 21.1846C95.2305 21.1846 95.5908 21.1406 95.8105 21.1055V19.6377C95.6699 19.6553 95.5029 19.6729 95.3008 19.6729C94.501 19.6729 94.0791 19.3916 94.0791 18.4512V13.2656H95.8105V11.7539H94.0791V9.3457H92.1367V11.7539H90.8096V13.2656H92.1367V18.5654C92.1367 20.4111 93.0156 21.1846 94.8438 21.1846ZM98.4121 10.3301C99.0361 10.3301 99.5195 9.83789 99.5195 9.24023C99.5195 8.63379 99.0361 8.1416 98.4121 8.1416C97.7969 8.1416 97.3047 8.63379 97.3047 9.24023C97.3047 9.83789 97.7969 10.3301 98.4121 10.3301ZM97.4629 21H99.3613V11.7539H97.4629V21ZM105.294 21.1846C107.939 21.1846 109.68 19.3564 109.68 16.377V16.3594C109.68 13.3975 107.922 11.5781 105.285 11.5781C102.657 11.5781 100.908 13.4062 100.908 16.3594V16.377C100.908 19.3477 102.64 21.1846 105.294 21.1846ZM105.303 19.5938C103.817 19.5938 102.851 18.4248 102.851 16.377V16.3594C102.851 14.3379 103.826 13.1689 105.285 13.1689C106.771 13.1689 107.737 14.3379 107.737 16.3594V16.377C107.737 18.416 106.788 19.5938 105.303 19.5938ZM111.147 21H113.046V15.6123C113.046 14.1709 113.907 13.2041 115.243 13.2041C116.562 13.2041 117.212 13.9863 117.212 15.375V21H119.119V15.0146C119.119 12.8877 117.95 11.5781 115.92 11.5781C114.522 11.5781 113.573 12.2109 113.09 13.1514H113.046V11.7539H111.147V21ZM129.165 21.2109C132.171 21.2109 133.999 19.7432 133.999 17.4316V17.4229C133.999 15.4629 132.874 14.3994 130.255 13.8457L128.866 13.5557C127.284 13.2129 126.563 12.6328 126.563 11.6836V11.6748C126.563 10.5674 127.565 9.82031 129.139 9.81152C130.642 9.81152 131.661 10.5234 131.837 11.7012L131.846 11.8242H133.762L133.753 11.6748C133.621 9.54785 131.811 8.10645 129.165 8.10645C126.484 8.10645 124.577 9.5918 124.568 11.7539V11.7627C124.568 13.6436 125.772 14.7861 128.26 15.3135L129.64 15.6035C131.318 15.9727 132.013 16.5264 132.013 17.5459V17.5547C132.013 18.7412 130.94 19.5059 129.244 19.5059C127.548 19.5059 126.379 18.7764 126.203 17.6074L126.186 17.4932H124.27L124.278 17.625C124.437 19.8574 126.317 21.2109 129.165 21.2109ZM139.492 21.1846C141.733 21.1846 143.157 19.8486 143.456 18.3809L143.474 18.2842H141.672L141.646 18.3545C141.408 19.0488 140.661 19.6289 139.536 19.6289C138.024 19.6289 137.066 18.6094 137.031 16.8604H143.579V16.2188C143.579 13.4414 141.988 11.5781 139.396 11.5781C136.803 11.5781 135.133 13.5117 135.133 16.4033V16.4121C135.133 19.3301 136.776 21.1846 139.492 21.1846ZM139.404 13.1338C140.644 13.1338 141.54 13.916 141.698 15.5156H137.058C137.225 13.9688 138.174 13.1338 139.404 13.1338ZM145.056 21H146.954V15.4893C146.954 14.1094 147.71 13.3096 148.932 13.3096C149.301 13.3096 149.635 13.3535 149.784 13.415V11.6484C149.635 11.6221 149.397 11.5781 149.125 11.5781C148.07 11.5781 147.297 12.2549 146.998 13.3359H146.954V11.7539H145.056V21ZM153.783 21H155.822L159.136 11.7539H157.158L154.838 19.1455H154.794L152.474 11.7539H150.452L153.783 21ZM161.254 10.3301C161.878 10.3301 162.361 9.83789 162.361 9.24023C162.361 8.63379 161.878 8.1416 161.254 8.1416C160.639 8.1416 160.146 8.63379 160.146 9.24023C160.146 9.83789 160.639 10.3301 161.254 10.3301ZM160.305 21H162.203V11.7539H160.305V21ZM168.136 21.1846C170.359 21.1846 171.906 19.7607 172.108 17.9062L172.117 17.8447H170.289L170.28 17.915C170.052 18.917 169.305 19.5938 168.136 19.5938C166.668 19.5938 165.692 18.4072 165.692 16.3857V16.377C165.692 14.3994 166.65 13.1689 168.127 13.1689C169.366 13.1689 170.069 13.9336 170.271 14.8389L170.289 14.9092H172.1L172.091 14.8477C171.933 13.1074 170.491 11.5781 168.109 11.5781C165.473 11.5781 163.75 13.4326 163.75 16.3594V16.3682C163.75 19.3301 165.438 21.1846 168.136 21.1846ZM177.408 21.1846C179.649 21.1846 181.073 19.8486 181.372 18.3809L181.39 18.2842H179.588L179.562 18.3545C179.324 19.0488 178.577 19.6289 177.452 19.6289C175.94 19.6289 174.982 18.6094 174.947 16.8604H181.495V16.2188C181.495 13.4414 179.904 11.5781 177.312 11.5781C174.719 11.5781 173.049 13.5117 173.049 16.4033V16.4121C173.049 19.3301 174.692 21.1846 177.408 21.1846ZM177.32 13.1338C178.56 13.1338 179.456 13.916 179.614 15.5156H174.974C175.141 13.9688 176.09 13.1338 177.32 13.1338Z" fill="white"/>
<circle cx="15" cy="15" r="15" fill="#4447E2"/>
<path fill-rule="evenodd" clip-rule="evenodd" d="M22.4935 10.8024C22.4918 10.7424 22.4743 10.6857 22.4585 10.6282C22.446 10.5799 22.4402 10.5307 22.4193 10.4866C22.4002 10.4432 22.3677 10.4082 22.3393 10.3682C22.3043 10.3174 22.2727 10.2666 22.2277 10.2249C22.2202 10.2174 22.2168 10.2074 22.2085 10.2007C22.1785 10.1749 22.1418 10.1657 22.1093 10.1449C22.0593 10.1124 22.0102 10.0791 21.9535 10.0574C21.8977 10.0374 21.8427 10.0324 21.7852 10.0241C21.7452 10.0182 21.7093 9.99992 21.6668 9.99992H17.5002C17.0393 9.99992 16.6668 10.3732 16.6668 10.8332C16.6668 11.2932 17.0393 11.6666 17.5002 11.6666H19.8552L16.4918 15.5899L12.9285 13.4524C12.576 13.2391 12.1227 13.3174 11.8593 13.6332L7.69267 18.6332C7.3985 18.9866 7.446 19.5124 7.79934 19.8066C7.956 19.9366 8.14434 19.9999 8.33267 19.9999C8.57184 19.9999 8.8085 19.8982 8.9735 19.6999L12.6835 15.2482L16.2377 17.3816C16.5868 17.5907 17.0352 17.5174 17.2993 17.2091L20.8335 13.0857V14.9999C20.8335 15.4599 21.206 15.8332 21.6668 15.8332C22.1277 15.8332 22.5002 15.4599 22.5002 14.9999V10.8332C22.5002 10.8224 22.4943 10.8132 22.4935 10.8024" fill="#231F20"/>
<mask id="mask0_52_2116" style="mask-type:alpha" maskUnits="userSpaceOnUse" x="7" y="10" width="16" height="10">
<path fill-rule="evenodd" clip-rule="evenodd" d="M22.4935 10.8024C22.4918 10.7424 22.4743 10.6857 22.4585 10.6282C22.446 10.5799 22.4402 10.5307 22.4193 10.4866C22.4002 10.4432 22.3677 10.4082 22.3393 10.3682C22.3043 10.3174 22.2727 10.2666 22.2277 10.2249C22.2202 10.2174 22.2168 10.2074 22.2085 10.2007C22.1785 10.1749 22.1418 10.1657 22.1093 10.1449C22.0593 10.1124 22.0102 10.0791 21.9535 10.0574C21.8977 10.0374 21.8427 10.0324 21.7852 10.0241C21.7452 10.0182 21.7093 9.99992 21.6668 9.99992H17.5002C17.0393 9.99992 16.6668 10.3732 16.6668 10.8332C16.6668 11.2932 17.0393 11.6666 17.5002 11.6666H19.8552L16.4918 15.5899L12.9285 13.4524C12.576 13.2391 12.1227 13.3174 11.8593 13.6332L7.69267 18.6332C7.3985 18.9866 7.446 19.5124 7.79934 19.8066C7.956 19.9366 8.14434 19.9999 8.33267 19.9999C8.57184 19.9999 8.8085 19.8982 8.9735 19.6999L12.6835 15.2482L16.2377 17.3816C16.5868 17.5907 17.0352 17.5174 17.2993 17.2091L20.8335 13.0857V14.9999C20.8335 15.4599 21.206 15.8332 21.6668 15.8332C22.1277 15.8332 22.5002 15.4599 22.5002 14.9999V10.8332C22.5002 10.8224 22.4943 10.8132 22.4935 10.8024" fill="white"/>
</mask>
<g mask="url(#mask0_52_2116)">
<rect x="5" y="5" width="20" height="20" fill="white"/>
</g>
</svg>
