<svg width="16" height="16" viewBox="0 0 16 16" fill="none" xmlns="http://www.w3.org/2000/svg">
<circle cx="8" cy="8" r="8" fill="#1C1C24"/>
<path fill-rule="evenodd" clip-rule="evenodd" d="M7.99999 7.37498C7.65541 7.37498 7.37499 7.6554 7.37499 7.99998C7.37499 8.34456 7.65541 8.62498 7.99999 8.62498C8.34458 8.62498 8.62499 8.34456 8.62499 7.99998C8.62499 7.6554 8.34458 7.37498 7.99999 7.37498ZM7.99999 9.45831C7.19583 9.45831 6.54166 8.80415 6.54166 7.99998C6.54166 7.19581 7.19583 6.54165 7.99999 6.54165C8.80416 6.54165 9.45833 7.19581 9.45833 7.99998C9.45833 8.80415 8.80416 9.45831 7.99999 9.45831ZM12.1117 7.79247C11.8454 7.32914 10.3775 5.00664 7.88708 5.08456C5.58416 5.14331 4.24416 7.17247 3.88833 7.79247C3.81499 7.92122 3.81499 8.07872 3.88833 8.20747C4.15083 8.66456 5.56749 10.9166 8.01041 10.9166C8.04416 10.9166 8.07833 10.9162 8.11291 10.9154C10.4158 10.8566 11.7558 8.82747 12.1117 8.20747C12.185 8.07872 12.185 7.92122 12.1117 7.79247Z" fill="#231F20"/>
<mask id="mask0_13_102" style="mask-type:alpha" maskUnits="userSpaceOnUse" x="3" y="5" width="10" height="6">
<path fill-rule="evenodd" clip-rule="evenodd" d="M7.99999 7.37498C7.65541 7.37498 7.37499 7.6554 7.37499 7.99998C7.37499 8.34456 7.65541 8.62498 7.99999 8.62498C8.34458 8.62498 8.62499 8.34456 8.62499 7.99998C8.62499 7.6554 8.34458 7.37498 7.99999 7.37498ZM7.99999 9.45831C7.19583 9.45831 6.54166 8.80415 6.54166 7.99998C6.54166 7.19581 7.19583 6.54165 7.99999 6.54165C8.80416 6.54165 9.45833 7.19581 9.45833 7.99998C9.45833 8.80415 8.80416 9.45831 7.99999 9.45831ZM12.1117 7.79247C11.8454 7.32914 10.3775 5.00664 7.88708 5.08456C5.58416 5.14331 4.24416 7.17247 3.88833 7.79247C3.81499 7.92122 3.81499 8.07872 3.88833 8.20747C4.15083 8.66456 5.56749 10.9166 8.01041 10.9166C8.04416 10.9166 8.07833 10.9162 8.11291 10.9154C10.4158 10.8566 11.7558 8.82747 12.1117 8.20747C12.185 8.07872 12.185 7.92122 12.1117 7.79247Z" fill="white"/>
</mask>
<g mask="url(#mask0_13_102)">
<rect x="3" y="3" width="10" height="10" fill="#FFA10B"/>
</g>
</svg>
